<svg xmlns="http://www.w3.org/2000/svg" xmlns:xlink="http://www.w3.org/1999/xlink" width="338.167" height="357.574" viewBox="0 0 338.167 357.574"><defs><style>.a{fill:#131313;}.b{filter:url(#a);}</style><filter id="a" x="0" y="0" width="338.167" height="357.574" filterUnits="userSpaceOnUse"><feOffset dy="3" input="SourceAlpha"/><feGaussianBlur stdDeviation="3" result="b"/><feFlood flood-opacity="0.161"/><feComposite operator="in" in2="b"/><feComposite in="SourceGraphic"/></filter></defs><g transform="translate(142.996 6) rotate(30)"><g class="b" transform="matrix(0.87, -0.5, 0.5, 0.87, -126.84, 66.3)"><path class="a" d="M212.146,23.47c-3.129-.21-6.627,2.047-9.2,4.3A227.413,227.413,0,0,0,156,84.948c1.467-14,8.591-26.662,14.654-39.367s11.295-26.774,8.627-40.6A7.2,7.2,0,0,0,177.662,1.2c-1.99-2.036-5.647-1.282-7.591.8S167.45,7,166.845,9.78q-3.008,13.849-6.017,27.7c-2.124,9.781-4.965,20.619-13.485,25.872-1.354.836-2.893,1.564-3.693,2.939-.744,1.272-.708,2.836-1.005,4.283-.882,4.232-4.585,7.171-7.909,9.935a119.533,119.533,0,0,0-27.221,32.452c.123-3.606-.682-8.381-4.262-8.832-2.611-.328-4.673,2.072-6.2,4.221q-7.9,11.148-15.8,22.3c.415-.59-1.221-3.057-1.564-3.529a10.374,10.374,0,0,0-3.129-2.847c-1.323-.785-2.993-1.7-4.365-1.431s-1.6.934-1.123,2.493a41.313,41.313,0,0,1,.949,4.083,60.653,60.653,0,0,1,1.062,8.489,61.1,61.1,0,0,1-1.38,16.783c-.513,2.282-1.149,4.7-.374,6.9s3.693,3.79,5.524,2.329a60.176,60.176,0,0,1-8.73,25.22c-1.852,2.97-4.324,6-7.781,6.529-6.637,1.016-10.582-7.422-10.653-14.136-.159-15.618,7.9-30.437,7.791-46.05-.031-4.237-.81-8.771-3.76-11.818-6.093-6.294-16.752-2.559-23.974,2.4C12.764,137.743-1.429,156.562.115,177.109c.5,6.606,2.58,12.982,3.9,19.476,1.754,8.632,2.144,17.47,2.534,26.272q.631,14.28,1.262,28.554c.19,4.339-.554,10.094.692,14.244,1.462,4.862,5.175,1.144,5.463-2.185.616-7.1,1.113-14.218,1.611-21.332.272-3.914.492-7.837,1.016-11.725.205-1.523,2.3-8.335-.58-8.668-1.959-.226-4.673,3.278-4.4,5.073-2.565-16.916-3.375-34.966-.072-51.841.226-1.149,2.344-11.018-.451-10.32-2.267.564-5.422,2.231-6.047,4.7A65.5,65.5,0,0,1,37.3,128.192c3.17-1.688,7.042-3.113,10.243-1.477,4.339,2.221,4.483,8.3,3.811,13.126a176.226,176.226,0,0,1-19.378,59.181,7.907,7.907,0,0,0-1.354,4.329c.144,1.529,1.662,3.016,3.108,2.508a3.81,3.81,0,0,0,1.59-1.38,138.285,138.285,0,0,0,10.469-15.434C47.1,195.477,49.8,203.1,56.254,204.279c4.77.872,9.309-2.426,12.449-6.124,9.858-11.618,11.936-27.718,14.244-42.777s5.945-31.262,17.609-41.075c-1.021,3.57-.913,8.94,2.785,9.263,2.052.18,3.7-1.59,4.991-3.2q12.11-15.057,24.22-30.113c-1.811,2.252-1.872,5.4-1.185,8.078.395,1.544,2.318,7.191,4.724,5.616a3.8,3.8,0,0,0,1.318-2.047c.616-1.764,1.221-3.693,1.985-5.4q2.039-4.562,4.057-9.135t4.006-9.161c1.134-2.606,3.7-6.37,3.955-9.181a151.615,151.615,0,0,1-21.184,64.53c-1.821,3.011-3.493,7.5-.595,9.494,3.313,2.283,7.1-2.17,8.663-5.873,4.375-10.356,8.673-20.753,13.633-30.847A261.2,261.2,0,0,1,214.972,24.5,5.272,5.272,0,0,0,212.146,23.47Zm-47.7,21.03c.841-4.226,1.816-8.427,2.857-12.613.964-3.878,2.134-7.7,3.108-11.582.472-1.877.7-3.816,1.062-5.873a.019.019,0,0,0,.015-.005.607.607,0,0,1,.133-.328c.1-.3.226-.59.349-.882.031-.1.062-.2.1-.3.051-.138.113-.272.174-.4a7.875,7.875,0,0,1,.364-.862c.005-.01.015-.015.021-.026s-.005-.026-.01-.036c.241-.431.631-1.123,1.108-1.975,1.677,4.042-5.724,35.638-9.048,38.992C163.275,47.29,164.188,45.776,164.444,44.5Z" transform="translate(143 6) rotate(30)"/></g></g></svg>